<?xml version="1.0" encoding="utf-8"?>
<!-- Generator: Adobe Illustrator 24.0.2, SVG Export Plug-In . SVG Version: 6.00 Build 0)  -->
<svg version="1.1" id="Layer_1" xmlns="http://www.w3.org/2000/svg" xmlns:xlink="http://www.w3.org/1999/xlink" x="0px" y="0px"
	 viewBox="0 0 134 53" style="enable-background:new 0 0 134 53;" xml:space="preserve">
<style type="text/css">
	.st0{fill:#19B394;}
	.st1{fill:#FF9814;}
</style>
<g>
	<path class="st0" d="M132,2v46l-10-10H2V2H132 M134,0h-2H0v40h121l13,13v-4V2V1V0z"/>
	<path class="st0" d="M29.46,15.81c-1.29-1.28-6.86-2.95-6.81,0.22c0.02,1.56,2.12,1.87,3.28,2.18c1.44,0.38,3.07,0.75,4.21,1.77
		c2.48,2.21,1.14,6.24-1.73,7.29c-3.07,1.13-6.98,0.26-9.59-1.6L20.18,23c1.03,1.03,2.87,1.66,4.27,1.87
		c1.02,0.15,2.84,0.28,3.46-0.8c0.79-1.38-0.79-2.27-1.87-2.64c-1.6-0.55-3.37-0.78-4.82-1.7c-2.68-1.69-2.09-5.7,0.41-7.27
		c2.8-1.75,6.62-0.93,9.2,0.83L29.46,15.81z M37.02,27.78c-3.5,0-3.7-3.36-3.7-6.04c0-1.98,0-3.95,0-5.93h3c0,2,0,4,0,6
		c0,0.96-0.09,2.13,0.61,2.88c1.41,1.51,3.7-0.21,4.37-1.6v-7.28h3c0,1.58,0,3.16,0,4.75c0,0.78-0.5,4.37,0.72,4.44v2.55
		c-0.89,0.18-2.1,0.33-2.8-0.39c-0.47-0.49-0.43-1.17-0.48-1.8C40.7,26.96,38.9,27.78,37.02,27.78z M54.27,18.41
		c-1.54,0.03-3.29,0.54-3.99,2.04v7.11h-3V15.81h2.76v2.51c0.76-1.46,2.46-2.99,4.24-2.64V18.41z M59.12,27.55l-4.33-11.74h3.09
		l2.98,9.3l3-9.3h2.82l-4.33,11.74H59.12z M73.3,27.78c-2.62,0-5.02-1.51-5.87-4.04c-0.81-2.42-0.07-5.32,1.99-6.89
		c1.98-1.5,4.93-1.67,7.08-0.44c2.03,1.16,3.46,3.88,2.87,6.24H70.3c0.13,1.38,1.03,2.54,2.4,2.85c1.26,0.29,2.97-0.22,3.49-1.51
		l2.58,0.72C77.77,26.77,75.51,27.78,73.3,27.78z M76.35,20.69c-0.32-3.76-5.84-3.79-6.1,0H76.35z M81.22,29.84
		c0.74,0.22,1.62,0.43,2.22-0.16c0.52-0.51,0.73-1.45,0.94-2.13l-4.64-11.74h3.09l3.18,9.14l2.82-9.14h2.82
		c-1.62,4.63-3.2,9.27-4.86,13.89c-0.85,2.35-3.16,3.55-5.58,2.74V29.84z"/>
	<path class="st1" d="M91.05,24.3c0.96,0.68,2.46,0.94,3.6,0.68c1.14-0.27,1.61-1.2,1.81-2.28c0.24-1.34,0.17-2.73,0.17-4.09
		c0-2.33,0-4.65,0-6.98h3.09c0,2.62,0,5.24,0,7.86c0,2.3,0.09,5.31-1.75,7.01c-1.9,1.75-5.55,1.72-7.62,0.3L91.05,24.3z
		 M112.35,15.81c-1.29-1.28-6.86-2.95-6.81,0.22c0.02,1.56,2.12,1.87,3.28,2.18c1.44,0.38,3.07,0.75,4.21,1.77
		c2.48,2.21,1.14,6.24-1.73,7.29c-3.07,1.13-6.98,0.26-9.59-1.6l1.37-2.67c1.03,1.03,2.87,1.66,4.27,1.87
		c1.02,0.15,2.84,0.28,3.46-0.8c0.79-1.38-0.79-2.27-1.87-2.64c-1.6-0.55-3.37-0.78-4.82-1.7c-2.68-1.69-2.09-5.7,0.41-7.27
		c2.8-1.75,6.62-0.93,9.2,0.83L112.35,15.81z"/>
</g>
</svg>
